# xmcd CD database file
#
# Track frame offsets:
#	150
#	24120
#	59435
#	77330
#	104127
#	134982
#	171980
#	190557
#	226610
#	248895
#	266405
#
# Disc length: 3745 seconds
#
# Revision: 0
# Processed by: cddbd v1.5.1PL0 Copyright (c) Steve Scherf et al.
# Submitted via: CDex 1.51
#
DISCID=8c0e9f0b
DTITLE=Barney McClure - Photographs
DYEAR=1998
DGENRE=Jazz
TTITLE0=Rachel Eyes
TTITLE1=Willow Weep For Me
TTITLE2=I Fall In Love Too Easily
TTITLE3=Hookin' It
TTITLE4=Knowhere
TTITLE5=Pete 'n Repeat
TTITLE6=Stell By Starlight
TTITLE7=Willow Cheyenne
TTITLE8=John Grey
TTITLE9=Iowa Wedding Song
TTITLE10=Photograph
EXTD=YEAR: 1998
EXTT0=
EXTT1=
EXTT2=
EXTT3=
EXTT4=
EXTT5=
EXTT6=
EXTT7=
EXTT8=
EXTT9=
EXTT10=
PLAYORDER=
